<svg width="32" height="32" viewBox="0 0 32 32" fill="none" xmlns="http://www.w3.org/2000/svg">
<g clip-path="url(#clip0_2023_71)">
<path d="M26.6668 5.33342V21.3334H10.6667V5.33342H26.6668ZM26.6668 2.66675H10.6667C9.20008 2.66675 8.00008 3.86675 8.00008 5.33342V21.3334C8.00008 22.8001 9.20008 24.0001 10.6667 24.0001H26.6668C28.1334 24.0001 29.3334 22.8001 29.3334 21.3334V5.33342C29.3334 3.86675 28.1334 2.66675 26.6668 2.66675ZM15.3334 15.5601L17.5867 18.5734L20.8934 14.4401L25.3334 20.0001H12.0001L15.3334 15.5601ZM2.66675 8.00008V26.6668C2.66675 28.1334 3.86675 29.3334 5.33342 29.3334H24.0001V26.6668H5.33342V8.00008H2.66675Z" fill="#111111"/>
</g>
<defs>
<clipPath id="clip0_2023_71">
<rect width="32" height="32" fill="white"/>
</clipPath>
</defs>
</svg>
