<svg width="32" height="32" viewBox="0 0 32 32" fill="none" xmlns="http://www.w3.org/2000/svg">
<g clip-path="url(#clip0_2023_79)">
<path d="M14.6667 24.0001H17.3334V21.3334H14.6667V24.0001ZM16.0001 2.66675C8.64008 2.66675 2.66675 8.64008 2.66675 16.0001C2.66675 23.3601 8.64008 29.3334 16.0001 29.3334C23.3601 29.3334 29.3334 23.3601 29.3334 16.0001C29.3334 8.64008 23.3601 2.66675 16.0001 2.66675ZM16.0001 26.6667C10.1201 26.6667 5.33341 21.8801 5.33341 16.0001C5.33341 10.1201 10.1201 5.33341 16.0001 5.33341C21.8801 5.33341 26.6667 10.1201 26.6667 16.0001C26.6667 21.8801 21.8801 26.6667 16.0001 26.6667ZM16.0001 8.00008C13.0534 8.00008 10.6667 10.3867 10.6667 13.3334H13.3334C13.3334 11.8667 14.5334 10.6667 16.0001 10.6667C17.4667 10.6667 18.6667 11.8667 18.6667 13.3334C18.6667 16.0001 14.6667 15.6667 14.6667 20.0001H17.3334C17.3334 17.0001 21.3334 16.6667 21.3334 13.3334C21.3334 10.3867 18.9467 8.00008 16.0001 8.00008Z" fill="#111111"/>
</g>
<defs>
<clipPath id="clip0_2023_79">
<rect width="32" height="32" fill="white"/>
</clipPath>
</defs>
</svg>
