<svg width="24" height="25" viewBox="0 0 24 25" fill="none" xmlns="http://www.w3.org/2000/svg">
<path d="M12 0.949951C5.376 0.949951 0 6.32595 0 12.95C0 19.574 5.376 24.95 12 24.95H18V22.55H12C6.792 22.55 2.4 18.158 2.4 12.95C2.4 7.74195 6.792 3.34995 12 3.34995C17.208 3.34995 21.6 7.74195 21.6 12.95V14.666C21.6 15.614 20.748 16.55 19.8 16.55C18.852 16.55 18 15.614 18 14.666V12.95C18 9.63795 15.312 6.94995 12 6.94995C8.688 6.94995 6 9.63795 6 12.95C6 16.262 8.688 18.95 12 18.95C13.656 18.95 15.168 18.278 16.248 17.186C17.028 18.254 18.372 18.95 19.8 18.95C22.164 18.95 24 17.03 24 14.666V12.95C24 6.32595 18.624 0.949951 12 0.949951ZM12 16.55C10.008 16.55 8.4 14.942 8.4 12.95C8.4 10.958 10.008 9.34995 12 9.34995C13.992 9.34995 15.6 10.958 15.6 12.95C15.6 14.942 13.992 16.55 12 16.55Z" fill="#111111"/>
</svg>
