<svg width="32" height="32" viewBox="0 0 32 32" fill="none" xmlns="http://www.w3.org/2000/svg">
<g clip-path="url(#clip0_2023_74)">
<path d="M27.9999 8.00008H17.8933L22.2799 3.61342L21.3333 2.66675L15.9999 8.00008H15.9599L10.6266 2.66675L9.70659 3.61342L14.0799 8.00008H3.99992C2.53325 8.00008 1.33325 9.20008 1.33325 10.6667V26.6668C1.33325 28.1334 2.53325 29.3334 3.99992 29.3334H27.9999C29.4666 29.3334 30.6666 28.1334 30.6666 26.6668V10.6667C30.6666 9.20008 29.4666 8.00008 27.9999 8.00008ZM27.9999 26.6668H3.99992V10.6667H27.9999V26.6668Z" fill="#111111"/>
<path d="M12.8572 23.2571V14.1143L20.8572 18.6857L12.8572 23.2571Z" fill="#111111"/>
</g>
<defs>
<clipPath id="clip0_2023_74">
<rect width="32" height="32" fill="white"/>
</clipPath>
</defs>
</svg>
